<?xml version="1.0" encoding="UTF-8"?>
<svg xmlns="http://www.w3.org/2000/svg" viewBox="0 0 1629.75 1536.75">
  <defs>
    <style>
      .cls-1 {
        fill: #872824;
      }

      .cls-2 {
        fill: #eec353;
      }
    </style>
  </defs>
  <g id="Layer_2" data-name="Layer 2">
    <polygon points="1235.56 1536.75 394.19 1536.75 0 254.53 244.4 254.53 126.28 0 1503.47 0 1385.35 254.53 1629.75 254.53 1235.56 1536.75"/>
    <polygon class="cls-2" points="1193.17 1497.43 428.23 1497.43 65.09 279.89 304.15 279.89 199.47 44.28 1404.83 44.28 1308.66 279.89 1560.68 279.62 1193.17 1497.43"/>
    <polygon class="cls-1" points="1163.3 1463.85 454.02 1465.89 105.17 319 355.98 319 243.55 76.11 1359.3 76.45 1249.94 319 1514.45 319 1163.3 1463.85"/>
  </g>
  <g id="Layer_3" data-name="Layer 3">
    <path class="cls-2" d="M794.08,1420.56l-2.56-523.32h237.67c90.82.25,141.84,47.12,153.08,140.62v1.1c0,42.48-14.16,78.25-42.48,107.3-28.32,29.3-65.19,44.07-110.6,44.31h-153.08v229.98h-82.03ZM876.12,977.81v131.1h153.08c2.44.25,4.76.37,6.96.37,37.59,0,57.25-21.48,58.96-64.45-.49-39.3-22.46-61.64-65.92-67.02h-153.08Z"/>
    <path class="cls-1" d="M722.12,451.21h473.29v98.44c-120.12,152.05-180.18,322.12-180.18,510.21v12.3h-98v-16.26c0-166.4,48.48-335.15,145.46-506.25h-340.58v-98.44Z"/>
    <path class="cls-2" d="M288.35,346.15h90.09l106.93,364.38,104.37-364.38h78l109.5,364.38,94.48-364.38h90.45l-140.26,525.51h-79.1l-108.4-354.13-100.34,354.13h-88.99l-156.74-525.51Z"/>
    <rect class="cls-1" x="786.28" y="520.02" width="143.49" height="103.66"/>
    <path class="cls-2" d="M598.47,695.82h79.47v523.68h-79.47v-523.68Z"/>
    <path class="cls-2" d="M764.05,531.62h394.41v82.03c-100.1,126.71-150.15,268.43-150.15,425.17v10.25h-81.67v-13.55c0-138.67,40.4-279.29,121.22-421.88h-283.81v-82.03Z"/>
  </g>
</svg>